# Blender 3.5.1
# www.blender.org
mtllib map1.mtl
o Cube
v 128.000000 256.000000 -128.000000
v 128.000000 0.000000 -128.000000
v 128.000000 256.000000 128.000000
v 128.000000 0.000000 128.000000
v -128.000000 256.000000 -128.000000
v -128.000000 0.000000 -128.000000
v -128.000000 256.000000 128.000000
v -128.000000 0.000000 128.000000
v -128.000000 256.000000 -128.000000
v -128.000000 0.000000 -128.000000
v -128.000000 192.000000 128.000000
v -128.000000 0.000000 128.000000
v 128.000000 64.000000 -128.000000
v -128.000000 256.000000 -128.000000
v -128.000000 128.000000 -128.000000
v 128.000000 128.000000 -256.000000
v -128.000000 0.000000 0.000000
v -128.000000 128.000000 128.000000
v -128.000000 128.000000 -128.000000
v -128.000000 256.000000 0.000000
v 0.000000 256.000000 -128.000000
v -128.000000 128.000000 -128.000000
v -128.000000 64.000000 -128.000000
v 0.000000 64.000000 -128.000000
v 0.000000 128.000000 -128.000000
v -128.000000 128.000000 0.000000
v -256.000000 0.000000 0.000000
v -256.000000 0.000000 128.000000
v -256.000000 128.000000 128.000000
v -256.000000 128.000000 0.000000
v -384.000000 0.000000 0.000000
v -384.000000 0.000000 128.000000
v -384.000000 128.000000 128.000000
v -384.000000 128.000000 0.000000
v -256.000000 128.000000 -256.000000
v -256.000000 256.000000 -256.000000
v -384.000000 128.000000 -256.000000
v -384.000000 256.000000 -256.000000
v -256.000000 128.000000 -384.000000
v -256.000000 256.000000 -384.000000
v -384.000000 128.000000 -384.000000
v -384.000000 256.000000 -384.000000
v 0.000000 128.000000 -256.000000
v 0.000000 256.000000 -256.000000
v 0.000000 128.000000 -384.000000
v 0.000000 256.000000 -384.000000
v 128.000000 256.000000 -256.000000
v 128.000000 128.000000 -384.000000
v 128.000000 256.000000 -384.000000
v 128.000000 128.000000 -128.000000
v 128.000000 256.000000 -128.000000
v 0.000000 128.000000 -128.000000
v 0.000000 256.000000 -128.000000
v -256.000000 128.000000 0.000000
v -256.000000 128.000000 128.000000
v -128.000000 128.000000 0.000000
v -128.000000 128.000000 128.000000
v -64.000000 128.000000 -128.000000
v -64.000000 64.000000 -128.000000
v 128.000000 64.000000 -128.000000
v -128.000000 64.000000 -128.000000
v -128.000000 0.000000 -128.000000
v 128.000000 0.000000 -128.000000
v 0.000000 128.000000 -128.000000
v 128.000000 128.000000 -128.000000
v 0.000000 128.000000 -128.000000
v 0.000000 64.000000 -128.000000
v 64.000000 128.000000 -128.000000
v 64.000000 64.000000 -128.000000
v -128.000000 256.000000 128.000000
v -128.000000 128.000000 128.000000
v -128.000000 256.000000 0.000000
v -128.000000 128.000000 0.000000
v -128.000000 256.000000 64.000000
v -128.000000 192.000000 0.000000
v -128.000000 128.000000 64.000000
v -128.000000 192.000000 64.000000
vn -0.0000 -1.0000 -0.0000
vn -0.0000 -0.0000 -1.0000
vn -0.0000 1.0000 -0.0000
vn -1.0000 -0.0000 -0.0000
vn -0.0000 -0.0000 1.0000
vn 1.0000 -0.0000 -0.0000
vn -0.0000 0.8944 0.4472
vn -0.0000 -0.8944 -0.4472
vt 0.573593 0.415835
vt 0.792635 0.410559
vt 0.354551 0.578390
vt 0.792635 0.248004
vt 0.735669 0.415835
vt 0.792635 0.191038
vt 0.955190 0.410559
vt 0.792635 0.028483
vt 0.516627 0.578390
vt 0.955190 0.248004
vt 0.573593 0.578390
vt 0.354551 0.415835
vt 0.735669 0.578390
vt 0.955190 0.191038
vt 0.955190 0.028483
vt 0.516627 0.415835
vt 0.565491 0.797911
vt 0.565491 0.635356
vt 0.792635 0.508163
vt 0.191038 0.028483
vt 0.703734 0.635356
vt 0.939343 0.936154
vt 0.028483 0.913909
vt 0.930878 0.467525
vt 0.269535 0.879188
vt 0.353593 0.277831
vt 0.191038 0.109521
vt 0.484214 0.635356
vt 0.565491 0.936154
vt 0.622457 0.635356
vt 0.565491 0.716633
vt 0.484214 0.797911
vt 0.109760 0.913909
vt 0.028483 0.832632
vt 0.971517 0.467525
vt 0.971517 0.548802
vt 0.109760 0.832632
vt 0.484214 0.716633
vt 0.484214 0.936154
vt 0.354551 0.635356
vt 0.565491 0.854877
vt 0.109760 0.109521
vt 0.109760 0.028483
vt 0.703734 0.716633
vt 0.654392 0.028483
vt 0.622457 0.716633
vt 0.427248 0.671704
vt 0.484214 0.854877
vt 0.654392 0.109521
vt 0.028483 0.109521
vt 0.028483 0.698559
vt 0.054185 0.775666
vt 0.028483 0.028483
vt 0.703734 0.797911
vt 0.131292 0.749964
vt 0.735669 0.028483
vt 0.622457 0.797911
vt 0.735669 0.109521
vt 0.105590 0.672857
vt 0.354551 0.817098
vt 0.841978 0.797911
vt 0.109760 0.277831
vt 0.427248 0.853446
vt 0.760700 0.797911
vt 0.654392 0.277831
vt 0.028483 0.277831
vt 0.054185 0.518644
vt 0.131292 0.492942
vt 0.735669 0.277831
vt 0.269535 0.497112
vt 0.109760 0.358869
vt 0.654392 0.358869
vt 0.188258 0.497112
vt 0.269535 0.415835
vt 0.028483 0.358869
vt 0.028483 0.441537
vt 0.188258 0.415835
vt 0.105590 0.415835
vt 0.735669 0.358869
vt 0.841978 0.635356
vt 0.703734 0.936154
vt 0.272316 0.277831
vt 0.760700 0.635356
vt 0.622457 0.936154
vt 0.491836 0.277831
vt 0.272316 0.358869
vt 0.269535 0.659668
vt 0.491837 0.358869
vt 0.188258 0.659668
vt 0.188258 0.879188
vt 0.410559 0.277831
vt 0.269535 0.797911
vt 0.353593 0.358869
vt 0.269535 0.740945
vt 0.188258 0.797911
vt 0.410559 0.358869
vt 0.188258 0.740945
vt 0.269535 0.960466
vt 0.353593 0.196793
vt 0.188258 0.960466
vt 0.410559 0.196793
vt 0.703734 0.854877
vt 0.272316 0.196793
vt 0.622457 0.854877
vt 0.491836 0.196793
vt 0.760700 0.936154
vt 0.841738 0.936154
vt 0.760700 0.854877
vt 0.841738 0.854877
vt 0.930878 0.508163
vt 0.971517 0.508163
vt 0.898944 0.797911
vt 0.898944 0.635356
vt 0.939582 0.635356
vt 0.939582 0.797911
vt 0.930878 0.548802
vt 0.898704 0.936154
vt 0.898704 0.854877
vt 0.939343 0.854877
vt 0.898704 0.895516
vt 0.939343 0.895516
vt 0.792635 0.548802
vt 0.792635 0.467525
vt 0.873913 0.548802
vt 0.873912 0.467525
vt 0.833274 0.548802
vt 0.873912 0.508163
vt 0.833274 0.467525
vt 0.833274 0.508163
s 0
usemtl Material.001
f 1/1/1 3/5/1 7/13/1 5/11/1
f 4/8/2 8/15/2 7/14/2 3/6/2
f 6/12/3 8/16/3 4/9/3 2/3/3
f 2/4/4 4/10/4 3/7/4 1/2/4
f 22/34/5 25/37/5 21/33/5 14/23/5
f 26/38/6 19/31/6 9/17/6 20/32/6
f 16/25/4 47/90/4 49/95/4 48/92/4
f 69/121/5 13/22/5 65/117/5 68/120/5
f 62/114/5 63/115/5 60/112/5 61/113/5
f 11/19/6 77/129/6 74/126/6 70/122/6
f 12/20/3 17/27/3 27/42/3 28/43/3
f 17/28/6 10/18/6 19/31/6 26/38/6
f 27/40/4 30/47/4 36/63/4 35/60/4
f 17/29/5 26/39/5 30/48/5 27/41/5
f 18/30/2 12/21/2 28/44/2 29/46/2
f 32/52/6 31/51/6 34/59/6 33/55/6
f 28/43/3 27/42/3 31/50/3 32/53/3
f 30/49/1 29/45/1 33/56/1 34/58/1
f 29/46/2 28/44/2 32/54/2 33/57/2
f 35/61/2 36/64/2 44/83/2 43/80/2
f 31/50/7 27/42/7 35/62/7 37/66/7
f 30/49/8 34/58/8 38/69/8 36/65/8
f 34/59/6 31/51/6 37/67/6 38/68/6
f 39/70/5 40/73/5 42/77/5 41/74/5
f 37/66/3 35/62/3 39/71/3 41/75/3
f 38/68/6 37/67/6 41/76/6 42/78/6
f 36/65/1 38/69/1 42/79/1 40/72/1
f 44/85/1 46/88/1 49/96/1 47/91/1
f 36/65/1 40/72/1 46/88/1 44/85/1
f 40/73/5 39/70/5 45/87/5 46/89/5
f 39/71/3 35/62/3 43/82/3 45/86/3
f 47/90/4 16/25/4 50/98/4 51/100/4
f 45/86/3 43/82/3 16/26/3 48/93/3
f 46/89/5 45/87/5 48/94/5 49/97/5
f 43/81/6 44/84/6 53/104/6 52/102/6
f 44/85/1 47/91/1 51/101/1 53/105/1
f 16/26/3 43/82/3 52/103/3 50/99/3
f 56/108/1 57/109/1 55/107/1 54/106/1
f 67/119/5 69/121/5 68/120/5 66/118/5
f 23/35/5 59/111/5 58/110/5 15/24/5
f 59/111/5 24/36/5 64/116/5 58/110/5
f 77/129/6 75/127/6 72/124/6 74/126/6
f 71/123/6 76/128/6 77/129/6 11/19/6
f 76/128/6 73/125/6 75/127/6 77/129/6
