# Blender 3.3.1
# www.blender.org
o Cube
v 32.000000 0.000000 -32.000000
v 32.000000 -64.000000 -32.000000
v 32.000000 -64.000000 32.000000
v -32.000000 0.000000 -32.000000
v -32.000000 -64.000000 -32.000000
v -32.000000 0.000000 32.000000
v -32.000000 -64.000000 32.000000
v -60.431725 -18.429901 19.153097
v -47.143494 -80.320602 9.721048
v -23.387510 -18.429901 71.342422
v -10.099270 -80.320602 61.910370
v -110.901024 -34.725323 54.976425
v -97.612770 -96.616028 45.544373
v -73.856796 -34.725323 107.165749
v -60.568558 -96.616028 97.733696
v -58.885765 -51.229519 -107.650879
v -47.953773 -112.326088 -92.039948
v -23.839838 -32.171463 -57.605179
v -12.907835 -93.268028 -41.994247
v -111.309753 -51.229519 -70.939491
v -100.377754 -112.326088 -55.328552
v -76.263817 -32.171463 -20.893789
v -65.331818 -93.268028 -5.282854
v 110.158508 -52.618187 -32.000000
v 86.610069 -112.128448 -32.000000
v 110.158508 -52.618187 32.000000
v 86.610069 -112.128448 32.000000
v 50.648247 -29.069748 -32.000000
v 27.099808 -88.580009 -32.000000
v 50.648247 -29.069748 32.000000
v 27.099808 -88.580009 32.000000
v 32.000000 -32.000000 32.000000
v 0.000000 0.000000 32.000000
v 32.000000 0.000000 0.000000
v -22.685467 -10.635708 19.969713
v -22.685467 2.164291 19.969713
v -16.740334 -10.635708 8.634134
v -16.740334 2.164291 8.634134
v -11.349888 -10.635708 25.914846
v -11.349888 2.164291 25.914846
v -5.404755 -10.635708 14.579267
v -5.404755 2.164291 14.579267
v 7.966211 -16.064821 24.087242
v 14.310774 -9.771444 29.481085
v 10.601431 -11.156204 15.260310
v 16.945993 -4.862831 20.654152
v 15.824694 -22.791817 22.692482
v 22.169254 -16.498446 28.086327
v 18.459909 -17.883202 13.865551
v 24.804474 -11.589827 19.259394
v -48.418461 -36.366276 74.777061
v -51.008141 -24.066755 77.196831
v -48.803493 -33.974625 62.208385
v -51.393177 -21.675102 64.628151
v -35.889084 -33.750607 74.890961
v -38.478767 -21.451084 77.310722
v -36.274120 -31.358953 62.322285
v -38.863800 -19.059431 64.742050
vn -1.0000 -0.0000 -0.0000
vn -0.0000 -1.0000 -0.0000
vn -0.0000 -0.0000 -1.0000
vn -0.2076 0.9670 0.1474
vn 0.5788 -0.0000 0.8155
vn -0.7886 -0.2546 0.5597
vn 0.2076 -0.9670 -0.1474
vn 0.7886 0.2546 -0.5597
vn -0.5788 -0.0000 -0.8155
vn -0.1708 0.9546 -0.2439
vn 0.5476 0.2978 0.7820
vn -0.8191 -0.0000 0.5736
vn 0.1708 -0.9546 0.2439
vn 0.8191 -0.0000 -0.5736
vn -0.5476 -0.2978 -0.7820
vn 0.3679 0.9298 -0.0000
vn -0.0000 -0.0000 1.0000
vn -0.9298 0.3679 -0.0000
vn -0.3679 -0.9298 -0.0000
vn 0.9298 -0.3679 -0.0000
vn 1.0000 -0.0000 -0.0000
vn -0.0000 1.0000 -0.0000
vn 0.5774 0.5774 0.5774
vn -0.8856 -0.0000 -0.4645
vn 0.4645 -0.0000 -0.8856
vn 0.8856 -0.0000 0.4645
vn -0.4645 -0.0000 0.8856
vn -0.7529 0.6445 0.1336
vn 0.2525 0.4703 -0.8456
vn 0.7529 -0.6445 -0.1336
vn -0.2525 -0.4703 0.8456
vn -0.6078 -0.6029 -0.5167
vn 0.6078 0.6029 0.5167
vn -0.9789 -0.2043 -0.0089
vn -0.0301 0.1868 -0.9819
vn 0.9789 0.2043 0.0089
vn 0.0301 -0.1868 0.9819
vn 0.2023 -0.9609 -0.1890
vn -0.2023 0.9609 0.1890
vt 0.195476 0.185476
vt 0.766905 0.385952
vt 0.576429 0.766905
vt 0.005000 0.195476
vt 0.375952 0.185476
vt 0.766905 0.566429
vt 0.005000 0.375952
vt 0.947381 0.566429
vt 0.766905 0.756905
vt 0.576429 0.185476
vt 0.195476 0.005000
vt 0.756905 0.766905
vt 0.756905 0.185476
vt 0.185476 0.195476
vt 0.375952 0.005000
vt 0.576429 0.005000
vt 0.947381 0.576429
vt 0.756905 0.947381
vt 0.756905 0.005000
vt 0.185476 0.375952
vt 0.947381 0.756905
vt 0.375952 0.195476
vt 0.195476 0.385952
vt 0.385952 0.566429
vt 0.385952 0.195476
vt 0.375952 0.385952
vt 0.566429 0.566429
vt 0.375952 0.375952
vt 0.005000 0.385952
vt 0.195476 0.566429
vt 0.185476 0.385952
vt 0.385952 0.375952
vt 0.375952 0.566429
vt 0.195476 0.195476
vt 0.385952 0.185476
vt 0.385952 0.385952
vt 0.566429 0.185476
vt 0.566429 0.195476
vt 0.566429 0.385952
vt 0.195476 0.375952
vt 0.005000 0.566429
vt 0.385952 0.005000
vt 0.185476 0.566429
vt 0.566429 0.005000
vt 0.566429 0.375952
vt 0.185476 0.576429
vt 0.385952 0.576429
vt 0.576429 0.566429
vt 0.576429 0.195476
vt 0.566429 0.576429
vt 0.756905 0.566429
vt 0.185476 0.756905
vt 0.005000 0.005000
vt 0.385952 0.756905
vt 0.185476 0.005000
vt 0.576429 0.375952
vt 0.566429 0.756905
vt 0.005000 0.576429
vt 0.195476 0.756905
vt 0.576429 0.385952
vt 0.375952 0.756905
vt 0.756905 0.195476
vt 0.756905 0.385952
vt 0.005000 0.756905
vt 0.005000 0.185476
vt 0.195476 0.576429
vt 0.185476 0.185476
vt 0.375952 0.576429
vt 0.756905 0.375952
vt 0.756905 0.576429
vt 0.195476 0.766905
vt 0.385952 0.947381
vt 0.766905 0.195476
vt 0.375952 0.766905
vt 0.566429 0.947381
vt 0.756905 0.756905
vt 0.005000 0.766905
vt 0.195476 0.947381
vt 0.185476 0.766905
vt 0.766905 0.375952
vt 0.375952 0.947381
vt 0.576429 0.576429
vt 0.766905 0.185476
vt 0.385952 0.766905
vt 0.947381 0.185476
vt 0.947381 0.195476
vt 0.566429 0.766905
vt 0.576429 0.756905
vt 0.005000 0.947381
vt 0.766905 0.005000
vt 0.185476 0.947381
vt 0.947381 0.005000
vt 0.947381 0.375952
vt 0.947381 0.476190
vt 0.766905 0.666667
vt 0.766905 0.847143
vt 0.857143 0.576429
vt 0.666667 0.947381
vt 0.766905 0.766905
vt 0.857143 0.385952
vt 0.576429 0.857143
vt 0.847143 0.766905
vt 0.947381 0.814524
vt 0.899762 0.852143
vt 0.852143 0.899762
vt 0.909762 0.814524
vt 0.862143 0.852143
vt 0.862143 0.899762
vt 0.947381 0.852143
vt 0.899762 0.766905
vt 0.852143 0.862143
vt 0.909762 0.852143
vt 0.862143 0.766905
vt 0.862143 0.862143
vt 0.804524 0.899762
vt 0.899762 0.814524
vt 0.814524 0.899762
vt 0.766905 0.899762
vt 0.862143 0.814524
vt 0.899762 0.899762
vt 0.899762 0.804524
vt 0.804524 0.862143
vt 0.814524 0.862143
vt 0.862143 0.804524
vt 0.766905 0.862143
vt 0.899762 0.862143
vt 0.804524 0.909762
vt 0.995000 0.137857
vt 0.947381 0.899762
vt 0.766905 0.909762
vt 0.957381 0.137857
vt 0.862143 0.947381
vt 0.804524 0.947381
vt 0.947381 0.766905
vt 0.947381 0.862143
vt 0.766905 0.947381
vt 0.909762 0.766905
vt 0.862143 0.909762
vt 0.852143 0.947381
vt 0.995000 0.100238
vt 0.909762 0.899762
vt 0.814524 0.947381
vt 0.957381 0.100238
vt 0.899762 0.947381
vt 0.947381 0.804524
vt 0.852143 0.909762
vt 0.909762 0.862143
vt 0.909762 0.804524
vt 0.814524 0.909762
vt 0.899762 0.909762
vt 0.947381 0.909762
vt 0.995000 0.090238
vt 0.090238 0.995000
vt 0.909762 0.909762
vt 0.957381 0.090238
vt 0.100238 0.995000
vt 0.947381 0.947381
vt 0.042619 0.957381
vt 0.090238 0.957381
vt 0.909762 0.947381
vt 0.005000 0.957381
vt 0.100238 0.957381
vt 0.995000 0.042619
vt 0.995000 0.052619
vt 0.052619 0.995000
vt 0.957381 0.042619
vt 0.957381 0.052619
vt 0.137857 0.995000
vt 0.042619 0.995000
vt 0.995000 0.005000
vt 0.052619 0.957381
vt 0.005000 0.995000
vt 0.957381 0.005000
vt 0.137857 0.957381
s 0
f 7/19/1 6/16/1 4/10/1 5/13/1
f 5/14/2 2/4/2 3/7/2 7/20/2
f 5/15/3 4/11/3 1/1/3 2/5/3
f 8/22/4 12/34/4 14/40/4 10/28/4
f 11/31/5 10/29/5 14/41/5 15/43/5
f 15/44/6 14/42/6 12/35/6 13/37/6
f 13/38/7 9/25/7 11/32/7 15/45/7
f 9/26/8 8/23/8 10/30/8 11/33/8
f 13/39/9 12/36/9 8/24/9 9/27/9
f 16/46/10 20/58/10 22/64/10 18/52/10
f 19/55/11 18/53/11 22/65/11 23/67/11
f 23/68/12 22/66/12 20/59/12 21/61/12
f 21/62/13 17/49/13 19/56/13 23/69/13
f 17/50/14 16/47/14 18/54/14 19/57/14
f 21/63/15 20/60/15 16/48/15 17/51/15
f 24/70/16 28/82/16 30/88/16 26/76/16
f 27/79/17 26/77/17 30/89/17 31/91/17
f 31/92/18 30/90/18 28/83/18 29/85/18
f 29/86/19 25/73/19 27/80/19 31/93/19
f 25/74/20 24/71/20 26/78/20 27/81/20
f 29/87/3 28/84/3 24/72/3 25/75/3
f 2/6/21 1/2/21 34/100/21 32/94/21 3/8/21
f 3/9/17 32/95/17 33/97/17 6/17/17 7/21/17
f 1/3/22 4/12/22 6/18/22 33/98/22 34/101/22
f 34/102/23 33/99/23 32/96/23
f 35/103/24 36/106/24 38/112/24 37/109/24
f 37/110/25 38/113/25 42/124/25 41/121/25
f 41/122/26 42/125/26 40/118/26 39/115/26
f 39/116/27 40/119/27 36/107/27 35/104/27
f 37/111/2 41/123/2 39/117/2 35/105/2
f 42/126/22 38/114/22 36/108/22 40/120/22
f 43/127/28 44/130/28 46/136/28 45/133/28
f 45/134/29 46/137/29 50/148/29 49/145/29
f 49/146/30 50/149/30 48/142/30 47/139/30
f 47/140/31 48/143/31 44/131/31 43/128/31
f 45/135/32 49/147/32 47/141/32 43/129/32
f 50/150/33 46/138/33 44/132/33 48/144/33
f 51/151/34 52/154/34 54/160/34 53/157/34
f 53/158/35 54/161/35 58/172/35 57/169/35
f 57/170/36 58/173/36 56/166/36 55/163/36
f 55/164/37 56/167/37 52/155/37 51/152/37
f 53/159/38 57/171/38 55/165/38 51/153/38
f 58/174/39 54/162/39 52/156/39 56/168/39
