# Blender 3.5.1
# www.blender.org
mtllib scene1.mtl
o Cube
v 128.000000 256.000000 -128.000000
v 128.000000 0.000000 -128.000000
v 128.000000 256.000000 128.000000
v 128.000000 0.000000 128.000000
v -128.000000 256.000000 -128.000000
v -128.000000 0.000000 -128.000000
v -128.000000 256.000000 128.000000
v -128.000000 0.000000 128.000000
v -128.000000 256.000000 -128.000000
v -128.000000 0.000000 -128.000000
v -128.000000 256.000000 128.000000
v -128.000000 0.000000 128.000000
v 128.000000 64.000000 -128.000000
v -128.000000 256.000000 -128.000000
v -128.000000 128.000000 -128.000000
v 128.000000 128.000000 -256.000000
v -128.000000 0.000000 0.000000
v -128.000000 128.000000 128.000000
v -128.000000 128.000000 -128.000000
v -128.000000 256.000000 0.000000
v 0.000000 256.000000 -128.000000
v -128.000000 128.000000 -128.000000
v -128.000000 64.000000 -128.000000
v 0.000000 64.000000 -128.000000
v 0.000000 128.000000 -128.000000
v -128.000000 128.000000 0.000000
v -256.000000 0.000000 0.000000
v -256.000000 0.000000 128.000000
v -256.000000 128.000000 128.000000
v -256.000000 128.000000 0.000000
v -384.000000 0.000000 0.000000
v -384.000000 0.000000 128.000000
v -384.000000 128.000000 128.000000
v -384.000000 128.000000 0.000000
v -256.000000 128.000000 -256.000000
v -256.000000 256.000000 -256.000000
v -384.000000 128.000000 -256.000000
v -384.000000 256.000000 -256.000000
v -256.000000 128.000000 -384.000000
v -256.000000 256.000000 -384.000000
v -384.000000 128.000000 -384.000000
v -384.000000 256.000000 -384.000000
v 0.000000 128.000000 -256.000000
v 0.000000 256.000000 -256.000000
v 0.000000 128.000000 -384.000000
v 0.000000 256.000000 -384.000000
v 128.000000 256.000000 -256.000000
v 128.000000 128.000000 -384.000000
v 128.000000 256.000000 -384.000000
v 128.000000 128.000000 -128.000000
v 128.000000 256.000000 -128.000000
v 0.000000 128.000000 -128.000000
v 0.000000 256.000000 -128.000000
v -256.000000 128.000000 0.000000
v -256.000000 128.000000 128.000000
v -128.000000 128.000000 0.000000
v -128.000000 128.000000 128.000000
v -64.000000 128.000000 -128.000000
v -64.000000 64.000000 -128.000000
v 128.000000 64.000000 -128.000000
v -128.000000 64.000000 -128.000000
v -194.532364 19.888664 8.270422
v -194.532364 48.688637 8.270422
v -194.532364 19.888664 5.870421
v -194.532364 48.688637 5.870421
v -192.132355 19.888664 8.270422
v -192.132355 48.688637 8.270422
v -192.132355 19.888664 5.870421
v -192.132355 48.688637 5.870421
v -194.532364 19.888664 121.951492
v -194.532364 48.688637 121.951492
v -194.532364 19.888664 119.551491
v -194.532364 48.688637 119.551491
v -192.132355 19.888664 121.951492
v -192.132355 48.688637 121.951492
v -192.132355 19.888664 119.551491
v -192.132355 48.688637 119.551491
v -379.005646 19.888664 65.762115
v -379.005646 48.688637 65.762115
v -379.005646 19.888664 63.362110
v -379.005646 48.688637 63.362110
v -376.605652 19.888664 65.762115
v -376.605652 48.688637 65.762115
v -376.605652 19.888664 63.362110
v -376.605652 48.688637 63.362110
v -379.005646 155.428497 -313.431824
v -379.005646 184.228485 -313.431824
v -379.005646 155.428497 -315.831787
v -379.005646 184.228485 -315.831787
v -376.605652 155.428497 -313.431824
v -376.605652 184.228485 -313.431824
v -376.605652 155.428497 -315.831787
v -376.605652 184.228485 -315.831787
v -130.148758 155.428497 -258.983887
v -130.148758 184.228485 -258.983887
v -130.148758 155.428497 -261.383911
v -130.148758 184.228485 -261.383911
v -127.748764 155.428497 -258.983887
v -127.748764 184.228485 -258.983887
v -127.748764 155.428497 -261.383911
v -127.748764 184.228485 -261.383911
v -130.148758 155.428497 -378.060699
v -130.148758 184.228485 -378.060699
v -130.148758 155.428497 -380.460693
v -130.148758 184.228485 -380.460693
v -127.748764 155.428497 -378.060699
v -127.748764 184.228485 -378.060699
v -127.748764 155.428497 -380.460693
v -127.748764 184.228485 -380.460693
v 120.280701 155.428497 -193.538498
v 120.280701 184.228485 -193.538498
v 120.280701 155.428497 -195.938492
v 120.280701 184.228485 -195.938492
v 122.680687 155.428497 -193.538498
v 122.680687 184.228485 -193.538498
v 122.680687 155.428497 -195.938492
v 122.680687 184.228485 -195.938492
v 6.332440 155.428497 -193.538498
v 6.332440 184.228485 -193.538498
v 6.332440 155.428497 -195.938492
v 6.332440 184.228485 -195.938492
v 8.732430 155.428497 -193.538498
v 8.732430 184.228485 -193.538498
v 8.732430 155.428497 -195.938492
v 8.732430 184.228485 -195.938492
v -128.000000 0.000000 -128.000000
v 128.000000 0.000000 -128.000000
v 0.000000 128.000000 -128.000000
v 128.000000 128.000000 -128.000000
v 0.000000 128.000000 -128.000000
v 0.000000 64.000000 -128.000000
v 64.000000 128.000000 -128.000000
v 64.000000 64.000000 -128.000000
vn -0.0000 -1.0000 -0.0000
vn -0.0000 -0.0000 -1.0000
vn -0.0000 1.0000 -0.0000
vn -1.0000 -0.0000 -0.0000
vn -0.0000 -0.0000 1.0000
vn 1.0000 -0.0000 -0.0000
vn -0.0000 0.8944 0.4472
vn -0.0000 -0.8944 -0.4472
vt 0.000000 0.000000
vt 0.000000 2.000000
vt 0.000000 4.000000
vt 0.000000 0.000000
vt 4.000000 0.000000
vt 0.000000 2.000000
vt 4.000000 2.000000
vt 0.000000 0.000000
vt 4.000000 4.000000
vt 4.000000 0.000000
vt 0.000000 4.000000
vt 0.000000 0.000000
vt 4.000000 4.000000
vt 4.000000 2.000000
vt 4.000000 0.000000
vt 4.000000 2.000000
vt 4.000000 0.000000
vt 0.000000 2.000000
vt 0.000000 0.000000
vt 0.000000 1.000000
vt 1.000000 0.000000
vt 0.000000 2.000000
vt 0.000000 1.000000
vt 0.000000 1.000000
vt 2.000000 2.000000
vt 0.000000 0.000000
vt 2.000000 0.000000
vt 0.000000 0.000000
vt 0.000000 1.000000
vt 0.000000 0.000000
vt 4.000000 1.000000
vt 2.000000 2.000000
vt 2.000000 2.000000
vt 0.000000 1.000000
vt 0.000000 0.500000
vt 2.000000 0.500000
vt 2.000000 1.000000
vt 2.000000 1.000000
vt 0.000000 1.000000
vt 2.000000 2.000000
vt 2.000000 0.000000
vt 0.000000 0.000000
vt 0.000000 2.000000
vt 2.000000 1.000000
vt 0.000000 0.000000
vt 0.000000 1.000000
vt 2.000000 0.000000
vt 0.000000 0.000000
vt 0.000000 1.000000
vt 2.000000 1.000000
vt 0.000000 0.000000
vt 0.000000 2.000000
vt 2.000000 1.000000
vt 2.000000 2.000000
vt 0.000000 2.000000
vt 0.000000 1.000000
vt 0.000000 1.000000
vt 0.000000 2.000000
vt 2.000000 1.000000
vt 0.000000 0.000000
vt 2.000000 2.000000
vt 2.000000 0.000000
vt 2.000000 0.000000
vt 0.000000 2.000000
vt 0.000000 0.000000
vt 4.000000 0.000000
vt 2.000000 0.000000
vt 0.000000 0.000000
vt 4.000000 1.000000
vt 0.000000 1.000000
vt 4.000000 2.000000
vt 0.000000 0.000000
vt 0.000000 2.000000
vt 4.000000 2.000000
vt 4.000000 1.000000
vt 0.000000 0.000000
vt 0.000000 1.000000
vt 4.000000 0.000000
vt 0.000000 0.000000
vt 2.000000 0.000000
vt 2.000000 2.000000
vt 0.000000 1.000000
vt 0.000000 2.000000
vt 0.000000 2.000000
vt 0.000000 0.000000
vt 0.000000 2.000000
vt 2.000000 1.000000
vt 2.000000 0.000000
vt 2.000000 2.000000
vt 4.000000 0.000000
vt 0.000000 0.000000
vt 2.000000 0.000000
vt 4.000000 1.000000
vt 4.000000 2.000000
vt 0.000000 1.000000
vt 0.000000 0.000000
vt 4.000000 1.000000
vt 4.000000 2.000000
vt 0.000000 0.000000
vt 0.000000 1.000000
vt 2.000000 0.000000
vt 4.000000 0.000000
vt 0.000000 0.000000
vt 0.000000 0.000000
vt 0.000000 2.000000
vt 0.000000 1.000000
vt 2.000000 0.000000
vt 0.000000 2.000000
vt 2.000000 1.000000
vt 2.000000 2.000000
vt 2.000000 0.000000
vt 2.000000 0.000000
vt 0.000000 2.000000
vt 2.000000 1.000000
vt 2.000000 2.000000
vt 2.000000 0.000000
vt 2.000000 2.000000
vt 2.000000 1.000000
vt 0.000000 2.000000
vt 0.000000 2.000000
vt 2.000000 2.000000
vt 0.000000 0.000000
vt 2.000000 0.000000
vt 1.000000 1.000000
vt 1.000000 0.500000
vt 4.000000 0.500000
vt 0.000000 0.500000
vt 0.000000 0.000000
vt 1.000000 0.000000
vt 0.504855 0.025633
vt 0.000000 1.000000
vt 1.000000 1.000000
vt 0.474608 0.972370
vt 1.000000 0.000000
vt 0.000000 0.000000
vt 0.456446 0.025633
vt 1.000000 1.000000
vt 0.000000 1.000000
vt 0.486692 0.972370
vt 1.000000 0.000000
vt 0.000000 0.000000
vt 0.504855 0.035910
vt 1.000000 1.000000
vt 0.000000 1.000000
vt 0.474608 0.975762
vt 1.000000 0.000000
vt 0.000000 0.000000
vt 0.456446 0.035910
vt 1.000000 1.000000
vt 0.000000 1.000000
vt 0.486692 0.975762
vt 0.000000 0.000000
vt 1.000000 0.000000
vt 0.504855 0.025633
vt 0.000000 1.000000
vt 1.000000 1.000000
vt 0.474608 0.972370
vt 1.000000 0.000000
vt 0.000000 0.000000
vt 0.456446 0.025633
vt 1.000000 1.000000
vt 0.000000 1.000000
vt 0.486692 0.972370
vt 1.000000 0.000000
vt 0.000000 0.000000
vt 0.504855 0.035910
vt 1.000000 1.000000
vt 0.000000 1.000000
vt 0.474608 0.975762
vt 1.000000 0.000000
vt 0.000000 0.000000
vt 0.456446 0.035910
vt 1.000000 1.000000
vt 0.000000 1.000000
vt 0.486692 0.975762
vt 0.000000 0.000000
vt 1.000000 0.000000
vt 0.504855 0.025633
vt 0.000000 1.000000
vt 1.000000 1.000000
vt 0.474608 0.972370
vt 1.000000 0.000000
vt 0.000000 0.000000
vt 0.456446 0.025633
vt 1.000000 1.000000
vt 0.000000 1.000000
vt 0.486692 0.972370
vt 1.000000 0.000000
vt 0.000000 0.000000
vt 0.504855 0.035910
vt 1.000000 1.000000
vt 0.000000 1.000000
vt 0.474608 0.975762
vt 1.000000 0.000000
vt 0.000000 0.000000
vt 0.456446 0.035910
vt 1.000000 1.000000
vt 0.000000 1.000000
vt 0.486692 0.975762
vt 0.000000 0.000000
vt 1.000000 0.000000
vt 0.504855 0.025633
vt 0.000000 1.000000
vt 1.000000 1.000000
vt 0.474608 0.972370
vt 1.000000 0.000000
vt 0.000000 0.000000
vt 0.456446 0.025633
vt 1.000000 1.000000
vt 0.000000 1.000000
vt 0.486692 0.972370
vt 1.000000 0.000000
vt 0.000000 0.000000
vt 0.504855 0.035910
vt 1.000000 1.000000
vt 0.000000 1.000000
vt 0.474608 0.975762
vt 1.000000 0.000000
vt 0.000000 0.000000
vt 0.456446 0.035910
vt 1.000000 1.000000
vt 0.000000 1.000000
vt 0.486692 0.975762
vt 0.000000 0.000000
vt 1.000000 0.000000
vt 0.504855 0.025633
vt 0.000000 1.000000
vt 1.000000 1.000000
vt 0.474608 0.972370
vt 1.000000 0.000000
vt 0.000000 0.000000
vt 0.456446 0.025633
vt 1.000000 1.000000
vt 0.000000 1.000000
vt 0.486692 0.972370
vt 1.000000 0.000000
vt 0.000000 0.000000
vt 0.504855 0.035910
vt 1.000000 1.000000
vt 0.000000 1.000000
vt 0.474608 0.975762
vt 1.000000 0.000000
vt 0.000000 0.000000
vt 0.456446 0.035910
vt 1.000000 1.000000
vt 0.000000 1.000000
vt 0.486692 0.975762
vt 0.000000 0.000000
vt 1.000000 0.000000
vt 0.504855 0.025633
vt 0.000000 1.000000
vt 1.000000 1.000000
vt 0.474608 0.972370
vt 1.000000 0.000000
vt 0.000000 0.000000
vt 0.456446 0.025633
vt 1.000000 1.000000
vt 0.000000 1.000000
vt 0.486692 0.972370
vt 1.000000 0.000000
vt 0.000000 0.000000
vt 0.504855 0.035910
vt 1.000000 1.000000
vt 0.000000 1.000000
vt 0.474608 0.975762
vt 1.000000 0.000000
vt 0.000000 0.000000
vt 0.456446 0.035910
vt 1.000000 1.000000
vt 0.000000 1.000000
vt 0.486692 0.975762
vt 0.000000 0.000000
vt 1.000000 0.000000
vt 0.504855 0.025633
vt 0.000000 1.000000
vt 1.000000 1.000000
vt 0.474608 0.972370
vt 1.000000 0.000000
vt 0.000000 0.000000
vt 0.456446 0.025633
vt 1.000000 1.000000
vt 0.000000 1.000000
vt 0.486692 0.972370
vt 1.000000 0.000000
vt 0.000000 0.000000
vt 0.504855 0.035910
vt 1.000000 1.000000
vt 0.000000 1.000000
vt 0.474608 0.975762
vt 1.000000 0.000000
vt 0.000000 0.000000
vt 0.456446 0.035910
vt 1.000000 1.000000
vt 0.000000 1.000000
vt 0.486692 0.975762
vt 0.000000 0.000000
vt 1.000000 0.000000
vt 0.504855 0.025633
vt 0.000000 1.000000
vt 1.000000 1.000000
vt 0.474608 0.972370
vt 1.000000 0.000000
vt 0.000000 0.000000
vt 0.456446 0.025633
vt 1.000000 1.000000
vt 0.000000 1.000000
vt 0.486692 0.972370
vt 1.000000 0.000000
vt 0.000000 0.000000
vt 0.504855 0.035910
vt 1.000000 1.000000
vt 0.000000 1.000000
vt 0.474608 0.975762
vt 1.000000 0.000000
vt 0.000000 0.000000
vt 0.456446 0.035910
vt 1.000000 1.000000
vt 0.000000 1.000000
vt 0.486692 0.975762
vt 0.000000 0.000000
vt 4.000000 0.000000
vt 2.000000 1.000000
vt 1.000000 1.000000
vt 0.000000 1.000000
vt 0.000000 0.000000
vt 0.000000 1.000000
vt 1.000000 1.000000
vt 0.000000 0.000000
vt 1.000000 0.000000
s 0
usemtl Bricks
f 4/8/2 8/15/2 7/14/2 3/6/2
f 2/4/4 4/10/4 3/7/4 1/2/4
f 22/34/5 25/37/5 21/33/5 14/22/5
f 26/38/6 19/31/6 9/16/6 20/32/6
f 16/24/4 47/104/4 49/111/4 48/109/4
f 126/320/5 127/321/5 60/126/5 61/127/5
f 18/29/6 26/38/6 20/32/6 11/18/6
f 17/27/6 10/17/6 19/31/6 26/38/6
f 27/42/4 30/49/4 36/69/4 35/66/4
f 17/28/5 26/39/5 30/50/5 27/41/5
f 18/30/2 12/20/2 28/44/2 29/47/2
f 32/57/6 31/53/6 34/63/6 33/60/6
f 29/48/2 28/46/2 32/59/2 33/62/2
f 35/68/2 36/70/2 44/93/2 43/90/2
f 34/65/6 31/56/6 37/75/6 38/78/6
f 39/82/5 40/85/5 42/88/5 41/87/5
f 38/79/6 37/77/6 41/87/6 42/88/6
f 40/85/5 39/82/5 45/97/5 46/102/5
f 47/106/4 16/26/4 50/112/4 51/114/4
f 46/103/5 45/100/5 48/109/5 49/111/5
f 43/91/6 44/95/6 53/118/6 52/116/6
f 23/35/5 59/125/5 58/124/5 15/23/5
f 59/125/5 24/36/5 128/322/5 58/124/5
usemtl Stone
f 1/1/1 3/5/1 7/13/1 5/11/1
f 6/12/3 8/15/3 4/9/3 2/3/3
f 12/19/3 17/27/3 27/40/3 28/43/3
f 28/45/3 27/41/3 31/54/3 32/58/3
f 30/51/1 29/47/1 33/61/1 34/64/1
f 31/55/7 27/42/7 35/66/7 37/74/7
f 30/52/8 34/65/8 38/78/8 36/71/8
f 37/76/3 35/67/3 39/81/3 41/86/3
f 36/72/1 38/80/1 42/89/1 40/84/1
f 44/96/1 46/101/1 49/110/1 47/105/1
f 36/73/1 40/85/1 46/102/1 44/94/1
f 39/83/3 35/68/3 43/90/3 45/98/3
f 45/99/3 43/92/3 16/25/3 48/108/3
f 44/96/1 47/107/1 51/115/1 53/119/1
f 16/26/3 43/92/3 52/117/3 50/113/3
f 56/122/1 57/123/1 55/121/1 54/120/1
usemtl StoneSkull
f 133/328/5 13/21/5 129/323/5 132/326/5
f 131/325/5 133/329/5 132/327/5 130/324/5
usemtl Torch
f 62/128/4 63/131/4 65/137/4 64/134/4
f 64/135/2 65/138/2 69/149/2 68/146/2
f 68/147/6 69/150/6 67/143/6 66/140/6
f 66/141/5 67/144/5 63/132/5 62/129/5
f 64/136/1 68/148/1 66/142/1 62/130/1
f 69/151/3 65/139/3 63/133/3 67/145/3
f 70/152/4 71/155/4 73/161/4 72/158/4
f 72/159/2 73/162/2 77/173/2 76/170/2
f 76/171/6 77/174/6 75/167/6 74/164/6
f 74/165/5 75/168/5 71/156/5 70/153/5
f 72/160/1 76/172/1 74/166/1 70/154/1
f 77/175/3 73/163/3 71/157/3 75/169/3
f 78/176/4 79/179/4 81/185/4 80/182/4
f 80/183/2 81/186/2 85/197/2 84/194/2
f 84/195/6 85/198/6 83/191/6 82/188/6
f 82/189/5 83/192/5 79/180/5 78/177/5
f 80/184/1 84/196/1 82/190/1 78/178/1
f 85/199/3 81/187/3 79/181/3 83/193/3
f 86/200/4 87/203/4 89/209/4 88/206/4
f 88/207/2 89/210/2 93/221/2 92/218/2
f 92/219/6 93/222/6 91/215/6 90/212/6
f 90/213/5 91/216/5 87/204/5 86/201/5
f 88/208/1 92/220/1 90/214/1 86/202/1
f 93/223/3 89/211/3 87/205/3 91/217/3
f 94/224/4 95/227/4 97/233/4 96/230/4
f 96/231/2 97/234/2 101/245/2 100/242/2
f 100/243/6 101/246/6 99/239/6 98/236/6
f 98/237/5 99/240/5 95/228/5 94/225/5
f 96/232/1 100/244/1 98/238/1 94/226/1
f 101/247/3 97/235/3 95/229/3 99/241/3
f 102/248/4 103/251/4 105/257/4 104/254/4
f 104/255/2 105/258/2 109/269/2 108/266/2
f 108/267/6 109/270/6 107/263/6 106/260/6
f 106/261/5 107/264/5 103/252/5 102/249/5
f 104/256/1 108/268/1 106/262/1 102/250/1
f 109/271/3 105/259/3 103/253/3 107/265/3
f 110/272/4 111/275/4 113/281/4 112/278/4
f 112/279/2 113/282/2 117/293/2 116/290/2
f 116/291/6 117/294/6 115/287/6 114/284/6
f 114/285/5 115/288/5 111/276/5 110/273/5
f 112/280/1 116/292/1 114/286/1 110/274/1
f 117/295/3 113/283/3 111/277/3 115/289/3
f 118/296/4 119/299/4 121/305/4 120/302/4
f 120/303/2 121/306/2 125/317/2 124/314/2
f 124/315/6 125/318/6 123/311/6 122/308/6
f 122/309/5 123/312/5 119/300/5 118/297/5
f 120/304/1 124/316/1 122/310/1 118/298/1
f 125/319/3 121/307/3 119/301/3 123/313/3
