# Blender 3.5.1
# www.blender.org
mtllib map3.mtl
o Cube
v 128.000000 256.000000 -128.000000
v 128.000000 0.000000 -128.000000
v 128.000000 256.000000 128.000000
v 128.000000 0.000000 128.000000
v -128.000000 256.000000 -128.000000
v -128.000000 0.000000 -128.000000
v -128.000000 256.000000 128.000000
v -128.000000 0.000000 128.000000
v -128.000000 256.000000 -128.000000
v -128.000000 0.000000 -128.000000
v -128.000000 192.000000 128.000000
v -128.000000 0.000000 128.000000
v 128.000000 64.000000 -128.000000
v -128.000000 256.000000 -128.000000
v -128.000000 128.000000 -128.000000
v 128.000000 128.000000 -256.000000
v -128.000000 0.000000 0.000000
v -128.000000 128.000000 128.000000
v -128.000000 128.000000 -128.000000
v -128.000000 256.000000 0.000000
v 0.000000 256.000000 -128.000000
v -128.000000 128.000000 -128.000000
v -128.000000 64.000000 -128.000000
v 0.000000 64.000000 -128.000000
v 0.000000 128.000000 -128.000000
v -128.000000 128.000000 0.000000
v -256.000000 0.000000 0.000000
v -256.000000 0.000000 128.000000
v -256.000000 128.000000 128.000000
v -256.000000 128.000000 0.000000
v -384.000000 0.000000 0.000000
v -384.000000 0.000000 128.000000
v -384.000000 128.000000 128.000000
v -384.000000 128.000000 0.000000
v -256.000000 128.000000 -256.000000
v -256.000000 256.000000 -256.000000
v -384.000000 128.000000 -256.000000
v -384.000000 256.000000 -256.000000
v -256.000000 128.000000 -384.000000
v -256.000000 256.000000 -384.000000
v -384.000000 128.000000 -384.000000
v -384.000000 256.000000 -384.000000
v 0.000000 128.000000 -256.000000
v 0.000000 256.000000 -256.000000
v 0.000000 128.000000 -384.000000
v 0.000000 256.000000 -384.000000
v 128.000000 256.000000 -256.000000
v 128.000000 128.000000 -384.000000
v 128.000000 256.000000 -384.000000
v 128.000000 128.000000 -128.000000
v 128.000000 256.000000 -128.000000
v 0.000000 128.000000 -128.000000
v 0.000000 256.000000 -128.000000
v -256.000000 128.000000 0.000000
v -256.000000 128.000000 128.000000
v -128.000000 128.000000 0.000000
v -128.000000 128.000000 128.000000
v -64.000000 128.000000 -128.000000
v -64.000000 64.000000 -128.000000
v 128.000000 64.000000 -128.000000
v -128.000000 64.000000 -128.000000
v -128.000000 0.000000 -128.000000
v 128.000000 0.000000 -128.000000
v 0.000000 128.000000 -128.000000
v 128.000000 128.000000 -128.000000
v 0.000000 128.000000 -128.000000
v 0.000000 64.000000 -128.000000
v 64.000000 128.000000 -128.000000
v 64.000000 64.000000 -128.000000
v -128.000000 256.000000 128.000000
v -128.000000 128.000000 128.000000
v -128.000000 256.000000 0.000000
v -128.000000 128.000000 0.000000
v -128.000000 256.000000 64.000000
v -128.000000 192.000000 0.000000
v -128.000000 128.000000 64.000000
v -128.000000 192.000000 64.000000
vn -0.0000 -1.0000 -0.0000
vn -0.0000 -0.0000 -1.0000
vn -0.0000 1.0000 -0.0000
vn -1.0000 -0.0000 -0.0000
vn -0.0000 -0.0000 1.0000
vn 1.0000 -0.0000 -0.0000
vn -0.0000 0.8944 0.4472
vn -0.0000 -0.8944 -0.4472
vt 0.000000 0.000000
vt 0.000000 2.000000
vt 0.000000 4.000000
vt 0.000000 0.000000
vt 4.000000 0.000000
vt 0.000000 2.000000
vt 4.000000 2.000000
vt 0.000000 0.000000
vt 4.000000 4.000000
vt 4.000000 0.000000
vt 0.000000 4.000000
vt 0.000000 0.000000
vt 4.000000 4.000000
vt 4.000000 2.000000
vt 4.000000 0.000000
vt 4.000000 2.000000
vt 4.000000 0.000000
vt 0.000000 1.500000
vt 0.000000 1.000000
vt 0.000000 0.000000
vt 1.000000 0.000000
vt 0.000000 2.000000
vt 0.000000 1.000000
vt 2.000000 2.000000
vt 0.000000 0.000000
vt 2.000000 0.000000
vt 0.000000 0.000000
vt 0.000000 1.000000
vt 4.000000 1.000000
vt 2.000000 2.000000
vt 2.000000 2.000000
vt 0.000000 1.000000
vt 0.000000 0.500000
vt 2.000000 0.500000
vt 2.000000 1.000000
vt 2.000000 1.000000
vt 0.000000 1.000000
vt 2.000000 2.000000
vt 2.000000 0.000000
vt 0.000000 0.000000
vt 0.000000 2.000000
vt 2.000000 0.000000
vt 0.000000 0.000000
vt 2.000000 1.000000
vt 2.000000 0.000000
vt 0.000000 1.000000
vt 0.000000 1.000000
vt 2.000000 1.000000
vt 0.000000 0.000000
vt 0.000000 2.000000
vt 2.000000 0.000000
vt 2.000000 2.000000
vt 0.000000 2.000000
vt 0.000000 0.000000
vt 0.000000 0.000000
vt 0.000000 2.000000
vt 2.000000 0.000000
vt 0.000000 1.000000
vt 2.000000 2.000000
vt 2.000000 1.000000
vt 2.000000 1.000000
vt 0.000000 2.000000
vt 0.000000 0.000000
vt 0.000000 1.000000
vt 4.000000 0.000000
vt 2.000000 0.000000
vt 0.000000 0.000000
vt 4.000000 1.000000
vt 0.000000 1.000000
vt 4.000000 2.000000
vt 0.000000 0.000000
vt 0.000000 2.000000
vt 4.000000 2.000000
vt 4.000000 0.000000
vt 0.000000 0.000000
vt 4.000000 0.000000
vt 4.000000 1.000000
vt 0.000000 1.000000
vt 2.000000 0.000000
vt 2.000000 2.000000
vt 0.000000 0.000000
vt 0.000000 2.000000
vt 0.000000 2.000000
vt 0.000000 0.000000
vt 0.000000 1.000000
vt 0.000000 2.000000
vt 2.000000 0.000000
vt 2.000000 1.000000
vt 2.000000 2.000000
vt 4.000000 0.000000
vt 0.000000 0.000000
vt 2.000000 0.000000
vt 4.000000 1.000000
vt 4.000000 2.000000
vt 0.000000 1.000000
vt 0.000000 0.000000
vt 4.000000 0.000000
vt 4.000000 2.000000
vt 0.000000 0.000000
vt 2.000000 0.000000
vt 4.000000 0.000000
vt 4.000000 1.000000
vt 0.000000 1.000000
vt 0.000000 2.000000
vt 0.000000 1.000000
vt 2.000000 0.000000
vt 0.000000 2.000000
vt 2.000000 0.000000
vt 2.000000 2.000000
vt 2.000000 1.000000
vt 2.000000 0.000000
vt 0.000000 2.000000
vt 2.000000 1.000000
vt 2.000000 2.000000
vt 2.000000 0.000000
vt 2.000000 2.000000
vt 2.000000 1.000000
vt 0.000000 2.000000
vt 0.000000 2.000000
vt 2.000000 2.000000
vt 0.000000 0.000000
vt 2.000000 0.000000
vt 1.000000 1.000000
vt 1.000000 0.500000
vt 4.000000 0.500000
vt 0.000000 0.500000
vt 0.000000 0.000000
vt 4.000000 0.000000
vt 2.000000 1.000000
vt 1.000000 1.000000
vt 0.000000 1.000000
vt 0.000000 0.000000
vt 0.000000 1.000000
vt 1.000000 1.000000
vt 0.000000 0.000000
vt 1.000000 0.000000
vt 0.000000 2.000000
vt 0.000000 0.000000
vt 2.000000 2.000000
vt 1.000000 0.000000
vt 1.000000 2.000000
vt 2.000000 1.500000
vt 1.000000 1.000000
vt 1.000000 0.000000
vt 0.000000 0.000000
vt 1.000000 1.500000
vt 1.000000 1.000000
vt 0.000000 1.000000
s 0
usemtl Bricks
f 4/8/2 8/15/2 7/14/2 3/6/2
f 2/4/4 4/10/4 3/7/4 1/2/4
f 22/32/5 25/35/5 21/31/5 14/22/5
f 26/36/6 19/29/6 9/16/6 20/30/6
f 16/25/4 47/105/4 49/110/4 48/108/4
f 62/127/5 63/128/5 60/125/5 61/126/5
f 11/18/6 77/146/6 74/141/6 70/137/6
f 17/26/6 10/17/6 19/29/6 26/36/6
f 27/40/4 30/47/4 36/68/4 35/65/4
f 17/27/5 26/37/5 30/48/5 27/39/5
f 18/28/2 12/20/2 28/42/2 29/44/2
f 32/55/6 31/51/6 34/61/6 33/58/6
f 29/46/2 28/43/2 32/57/2 33/60/2
f 35/67/2 36/69/2 44/93/2 43/90/2
f 34/64/6 31/54/6 37/74/6 38/77/6
f 39/81/5 40/85/5 42/88/5 41/87/5
f 38/78/6 37/75/6 41/87/6 42/88/6
f 40/85/5 39/81/5 45/97/5 46/102/5
f 47/105/4 16/25/4 50/111/4 51/113/4
f 46/103/5 45/99/5 48/108/5 49/110/5
f 43/91/6 44/95/6 53/117/6 52/115/6
f 23/33/5 59/124/5 58/123/5 15/23/5
f 59/124/5 24/34/5 64/129/5 58/123/5
f 77/146/6 75/142/6 72/139/6 74/141/6
usemtl Stone
f 1/1/1 3/5/1 7/13/1 5/11/1
f 6/12/3 8/15/3 4/9/3 2/3/3
f 12/20/3 17/26/3 27/38/3 28/41/3
f 28/43/3 27/39/3 31/52/3 32/56/3
f 30/49/1 29/45/1 33/59/1 34/62/1
f 31/53/7 27/40/7 35/65/7 37/73/7
f 30/50/8 34/63/8 38/76/8 36/70/8
f 37/75/3 35/66/3 39/80/3 41/86/3
f 36/71/1 38/79/1 42/89/1 40/83/1
f 44/96/1 46/100/1 49/109/1 47/104/1
f 36/72/1 40/84/1 46/101/1 44/94/1
f 39/82/3 35/67/3 43/90/3 45/98/3
f 45/99/3 43/92/3 16/24/3 48/107/3
f 44/96/1 47/106/1 51/114/1 53/118/1
f 16/25/3 43/92/3 52/116/3 50/112/3
f 56/121/1 57/122/1 55/120/1 54/119/1
usemtl StoneSkull
f 69/135/5 13/21/5 65/130/5 68/133/5
f 67/132/5 69/136/5 68/134/5 66/131/5
f 71/138/6 76/144/6 77/147/6 11/19/6
f 76/145/6 73/140/6 75/143/6 77/148/6
