# Blender 3.5.1
# www.blender.org
o Cube
v 45.346920 1.386850 -1.386850
v 45.346920 -1.386850 -1.386850
v 45.346920 1.386850 1.386850
v 45.346920 -1.386850 1.386850
v 4.573081 1.386850 -1.386850
v 4.573081 -1.386850 -1.386850
v 4.573081 1.386850 1.386850
v 4.573081 -1.386850 1.386850
v 4.389811 -1.520137 0.960000
v 5.160000 -1.520137 -1.520137
v 45.530190 -0.960000 -1.520137
v 4.389811 0.960000 1.520137
v 45.530190 -0.960000 1.520137
v 4.389811 -0.960000 -1.520137
v 5.160000 1.520137 1.520137
v 45.530190 1.520137 0.960000
v 44.759998 -1.520137 1.520137
v 4.389811 1.520137 -0.960000
v 44.759998 1.520137 -1.520137
v 45.530190 -1.520137 -0.960000
v 4.389811 -1.520137 -0.960000
v 45.530190 0.960000 -1.520137
v 4.389811 -0.960000 1.520137
v 45.530190 0.960000 1.520137
v 4.389811 0.960000 -1.520137
v 45.530190 1.520137 -0.960000
v 4.389811 1.520137 0.960000
v 45.530190 -1.520137 0.960000
v 5.160000 -1.520137 1.520137
v 5.160000 1.520137 -1.520137
v 44.759998 -1.520137 -1.520137
v 44.759998 1.520137 1.520137
v 5.160001 1.920000 -0.960000
v 5.160000 -0.960000 1.920000
v 3.840000 0.960000 0.960000
v 3.840000 -0.960000 0.960000
v 3.840000 -0.960000 -0.960000
v 44.759998 -1.920000 -0.960000
v 46.079998 0.960000 -0.960000
v 46.079998 -0.960000 -0.960000
v 46.079998 -0.960000 0.960000
v 44.759998 -0.960000 -1.920000
v 5.160000 0.960000 -1.920000
v 5.160000 -0.960000 -1.920000
v 5.160000 -1.920000 -0.960000
v 5.160000 -1.920000 0.960000
v 44.759998 0.960000 1.920000
v 44.759998 -0.960000 1.920000
v 44.759998 1.920000 -0.960000
v 44.759998 1.920000 0.960000
v 44.759998 0.960000 -1.920000
v 46.079998 0.960000 0.960000
v 44.759998 -1.920000 0.960000
v 3.840000 0.960000 -0.960000
v 5.160000 0.960000 1.920000
v 5.160001 1.920000 0.960000
v 1.386828 1.386850 45.346931
v 1.386828 -1.386850 45.346931
v -1.386872 1.386850 45.346931
v -1.386872 -1.386850 45.346931
v 1.386823 1.386850 4.573091
v 1.386823 -1.386850 4.573091
v -1.386878 1.386850 4.573091
v -1.386878 -1.386850 4.573091
v -0.960028 -1.520137 4.389820
v 1.520110 -1.520137 5.160013
v 1.520116 -0.960000 45.530209
v -1.520165 0.960000 4.389820
v -1.520158 -0.960000 45.530209
v 1.520110 -0.960000 4.389820
v -1.520165 1.520137 5.160013
v -0.960022 1.520137 45.530209
v -1.520158 -1.520137 44.760010
v 0.959973 1.520137 4.389820
v 1.520116 1.520137 44.760010
v 0.959978 -1.520137 45.530209
v 0.959973 -1.520137 4.389820
v 1.520116 0.960000 45.530209
v -1.520165 -0.960000 4.389820
v -1.520158 0.960000 45.530209
v 1.520110 0.960000 4.389820
v 0.959978 1.520137 45.530209
v -0.960028 1.520137 4.389820
v -0.960022 -1.520137 45.530209
v -1.520165 -1.520137 5.160013
v 1.520110 1.520137 5.160013
v 1.520116 -1.520137 44.760010
v -1.520158 1.520137 44.760010
v 0.959973 1.919999 5.160013
v -1.920027 -0.960000 5.160013
v -0.960028 0.960000 3.840011
v -0.960028 -0.960000 3.840011
v 0.959973 -0.960000 3.840011
v 0.959978 -1.919999 44.760010
v 0.959978 0.960000 46.080017
v 0.959978 -0.960000 46.080017
v -0.960022 -0.960000 46.080017
v 1.919978 -0.960000 44.760010
v 1.919972 0.960000 5.160013
v 1.919972 -0.960000 5.160013
v 0.959973 -1.919999 5.160013
v -0.960028 -1.919999 5.160013
v -1.920021 0.960000 44.760010
v -1.920021 -0.960000 44.760010
v 0.959978 1.919999 44.760010
v -0.960022 1.919999 44.760010
v 1.919978 0.960000 44.760010
v -0.960022 0.960000 46.080017
v -0.960022 -1.919999 44.760010
v 0.959973 0.960000 3.840011
v -1.920027 0.960000 5.160013
v -0.960028 1.919999 5.160013
v -1.386929 44.386894 -1.386850
v 1.386771 44.386894 -1.386850
v -1.386929 44.386894 1.386850
v 1.386771 44.386894 1.386850
v -1.386935 3.613057 -1.386850
v 1.386765 3.613057 -1.386850
v -1.386935 3.613057 1.386850
v 1.386765 3.613057 1.386850
v 1.520052 3.429786 0.960000
v 1.520052 4.199976 -1.520137
v 0.959921 44.570168 -1.520137
v -0.960085 3.429786 1.520137
v 0.959921 44.570168 1.520137
v 0.959915 3.429786 -1.520137
v -1.520221 4.199976 1.520137
v -1.520216 44.570168 0.960000
v 1.520060 43.799973 1.520137
v -1.520221 3.429786 -0.960000
v -1.520216 43.799973 -1.520137
v 1.520060 44.570168 -0.960000
v 1.520052 3.429786 -0.960000
v -0.960079 44.570168 -1.520137
v 0.959915 3.429786 1.520137
v -0.960079 44.570168 1.520137
v -0.960085 3.429786 -1.520137
v -1.520216 44.570168 -0.960000
v -1.520221 3.429786 0.960000
v 1.520060 44.570168 0.960000
v 1.520052 4.199976 1.520137
v -1.520221 4.199976 -1.520137
v 1.520060 43.799973 -1.520137
v -1.520216 43.799973 1.520137
v -1.920084 4.199976 -0.960000
v 0.959915 4.199976 1.919999
v -0.960085 2.879974 0.960000
v 0.959915 2.879974 0.960000
v 0.959915 2.879974 -0.960000
v 1.919923 43.799973 -0.960000
v -0.960079 45.119972 -0.960000
v 0.959921 45.119972 -0.960000
v 0.959921 45.119972 0.960000
v 0.959921 43.799973 -1.919999
v -0.960085 4.199976 -1.919999
v 0.959915 4.199976 -1.919999
v 1.919914 4.199976 -0.960000
v 1.919914 4.199976 0.960000
v -0.960079 43.799973 1.919999
v 0.959921 43.799973 1.919999
v -1.920078 43.799973 -0.960000
v -1.920078 43.799973 0.960000
v -0.960079 43.799973 -1.919999
v -0.960079 45.119972 0.960000
v 1.919923 43.799973 0.960000
v -0.960085 2.879974 -0.960000
v -0.960085 4.199976 1.919999
v -1.920084 4.199976 0.960000
vn -0.2118 0.9374 0.2765
vn -0.5807 0.7682 0.2696
vn -0.4584 0.6284 0.6284
vn -0.1833 0.6951 0.6951
vn -0.2118 0.2765 0.9374
vn -0.5807 0.2696 0.7682
vn -0.8839 0.3307 -0.3307
vn -0.5807 0.7682 -0.2696
vn -0.4584 0.6284 -0.6284
vn -0.5807 0.2696 -0.7682
vn 0.2118 -0.9374 0.2765
vn 0.5807 -0.7682 0.2696
vn 0.4584 -0.6284 0.6285
vn 0.1833 -0.6951 0.6951
vn 0.8839 0.3307 0.3307
vn 0.5807 0.7682 0.2696
vn 0.4584 0.6285 0.6285
vn 0.5807 0.2696 0.7682
vn 0.2118 0.2765 -0.9374
vn 0.1833 0.6951 -0.6951
vn 0.4584 0.6285 -0.6285
vn 0.5807 0.2696 -0.7682
vn -0.2118 0.2765 -0.9374
vn -0.1833 0.6951 -0.6951
vn 0.6951 0.6951 0.1833
vn 0.6951 0.6951 -0.1833
vn 0.2765 0.9374 -0.2118
vn 0.2765 0.9374 0.2118
vn 0.2118 -0.9374 -0.2765
vn 0.5807 -0.7682 -0.2696
vn 0.2765 0.2118 -0.9374
vn -0.2765 0.2118 -0.9374
vn -0.2696 0.5807 -0.7682
vn 0.2696 0.5807 -0.7682
vn -0.9374 0.2765 0.2118
vn -0.9374 0.2765 -0.2118
vn -0.9374 -0.2765 -0.2118
vn -0.9374 -0.2765 0.2118
vn -0.3307 -0.3307 0.8839
vn -0.3307 0.3307 0.8839
vn -0.7682 0.2696 0.5807
vn -0.7682 -0.2696 0.5807
vn 0.8839 -0.3307 -0.3307
vn 0.8839 -0.3307 0.3307
vn -0.8839 -0.3307 0.3307
vn -0.8839 -0.3307 -0.3307
vn -0.5807 -0.7682 -0.2696
vn -0.5807 -0.7682 0.2696
vn -0.5807 -0.2696 -0.7682
vn 0.1833 0.6951 0.6951
vn 0.2118 0.2765 0.9374
vn 0.3307 -0.3307 0.8839
vn 0.3307 0.3307 0.8839
vn 0.2696 -0.5807 0.7682
vn -0.2696 -0.5807 0.7682
vn -0.3307 -0.8839 0.3307
vn 0.3307 -0.8839 0.3307
vn 0.3307 0.8839 -0.3307
vn 0.3307 0.8839 0.3307
vn 0.7682 0.5807 0.2696
vn 0.7682 0.5807 -0.2696
vn 0.2118 -0.2765 -0.9374
vn 0.5807 -0.2696 -0.7682
vn -0.2118 0.9374 -0.2765
vn -0.1833 -0.6951 0.6951
vn -0.2118 -0.2765 0.9374
vn -0.5807 -0.2696 0.7682
vn -0.4584 -0.6284 0.6284
vn -0.8839 0.3307 0.3307
vn -0.4584 -0.6284 -0.6284
vn 0.1833 -0.6951 -0.6951
vn 0.4584 -0.6285 -0.6285
vn 0.5807 0.7682 -0.2696
vn 0.8839 0.3307 -0.3307
vn 0.5807 -0.2696 0.7682
vn 0.3307 -0.8839 -0.3307
vn 0.7682 -0.5807 -0.2696
vn 0.7682 -0.5807 0.2696
vn 0.2118 0.9374 0.2765
vn 0.2118 0.9374 -0.2765
vn -0.7682 -0.5807 0.2696
vn -0.7682 -0.5807 -0.2696
vn -0.3307 -0.8839 -0.3307
vn 0.2696 0.5807 0.7682
vn -0.2696 0.5807 0.7682
vn -0.2765 0.2118 0.9374
vn 0.2765 0.2118 0.9374
vn 0.6951 -0.6951 0.1833
vn 0.2765 -0.9374 0.2118
vn 0.2765 -0.9374 -0.2118
vn 0.6951 -0.6951 -0.1833
vn 0.2118 -0.2765 0.9374
vn 0.7682 -0.2696 -0.5807
vn 0.7682 0.2696 -0.5807
vn 0.9374 0.2765 -0.2118
vn 0.9374 -0.2765 -0.2118
vn -0.2118 -0.2765 -0.9374
vn -0.1833 -0.6951 -0.6951
vn -0.2118 -0.9374 -0.2765
vn -0.2118 -0.9374 0.2765
vn -0.2765 -0.9374 -0.2118
vn -0.2696 -0.7682 -0.5807
vn 0.2696 -0.7682 -0.5807
vn -0.2696 0.7682 -0.5807
vn -0.2765 0.9374 -0.2118
vn 0.2696 0.7682 -0.5807
vn 0.3307 0.3307 -0.8839
vn -0.3307 0.3307 -0.8839
vn 0.9374 0.2765 0.2118
vn -0.7682 0.2696 -0.5807
vn -0.7682 -0.2696 -0.5807
vn -0.6285 0.6284 -0.4584
vn -0.6951 0.6951 -0.1833
vn 0.6285 0.6284 -0.4584
vn -0.2765 -0.9374 0.2118
vn -0.2696 -0.7682 0.5807
vn -0.6285 -0.6285 0.4584
vn -0.6951 -0.6951 0.1833
vn -0.2696 0.7682 0.5807
vn -0.6285 0.6285 0.4584
vn 0.6285 0.6285 0.4584
vn 0.7682 0.2696 0.5807
vn 0.6951 0.1833 -0.6951
vn 0.9374 0.2118 -0.2765
vn 0.9374 -0.2118 -0.2765
vn 0.6951 -0.1833 -0.6951
vn -0.7682 0.5807 -0.2696
vn -0.7682 0.5807 0.2696
vn -0.3307 0.8839 0.3307
vn -0.3307 0.8839 -0.3307
vn -0.3307 -0.3307 -0.8839
vn 0.3307 -0.3307 -0.8839
vn -0.6951 -0.6951 -0.1833
vn -0.6285 -0.6284 -0.4584
vn 0.6285 -0.6284 -0.4584
vn 0.6285 -0.6285 0.4584
vn 0.2696 -0.7682 0.5807
vn -0.2765 -0.2118 0.9374
vn 0.2765 -0.2118 0.9374
vn 0.2696 0.7682 0.5807
vn 0.7682 -0.2696 0.5807
vn 0.9374 -0.2765 0.2118
vn -0.6951 0.6951 0.1833
vn 0.2765 -0.2118 -0.9374
vn -0.6951 0.1833 0.6951
vn -0.6951 -0.1833 0.6951
vn 0.9374 0.2118 0.2765
vn -0.2696 -0.5807 -0.7682
vn 0.2696 -0.5807 -0.7682
vn -0.2765 0.9374 0.2118
vn -0.9374 -0.2118 0.2765
vn -0.6285 -0.4584 0.6284
vn -0.6285 -0.4584 -0.6284
vn 0.6284 0.4584 0.6285
vn 0.6951 0.1833 0.6951
vn -0.6285 0.4584 0.6284
vn -0.6951 0.1833 -0.6951
vn -0.6285 0.4584 -0.6284
vn 0.9374 -0.2118 0.2765
vn 0.6951 -0.1833 0.6951
vn -0.9374 0.2118 0.2765
vn -0.6951 -0.1833 -0.6951
vn -0.9374 -0.2118 -0.2765
vn 0.6285 -0.4584 0.6284
vn 0.6285 -0.4584 -0.6284
vn 0.6284 0.4584 -0.6285
vn -0.2765 -0.2118 -0.9374
vn -0.9374 0.2118 -0.2765
vt 0.100832 0.180075
vt 0.086793 0.056442
vt 0.091334 0.186678
vt 0.091334 0.186678
vt 0.086793 0.073322
vt 0.095001 0.180075
vt 0.090338 0.056442
vt 0.100832 0.180075
vt 0.095148 0.186678
vt 0.095148 0.186678
vt 0.090338 0.073322
vt 0.095001 0.180075
vt 0.095013 0.933132
vt 0.091334 0.894825
vt 0.100832 0.901429
vt 0.095013 0.950011
vt 0.095001 0.901429
vt 0.091334 0.894825
vt 0.095148 0.894825
vt 0.100832 0.901429
vt 0.091469 0.933132
vt 0.095001 0.901429
vt 0.091469 0.950011
vt 0.095148 0.894825
vt 0.092355 0.950011
vt 0.094194 0.894825
vt 0.095001 0.878886
vt 0.091334 0.872696
vt 0.096459 0.180075
vt 0.086793 0.069102
vt 0.099374 0.901429
vt 0.091469 0.937352
vt 0.096459 0.180075
vt 0.090338 0.069102
vt 0.095013 0.945792
vt 0.096459 0.901429
vt 0.100832 0.878887
vt 0.095148 0.872696
vt 0.094194 0.186678
vt 0.089452 0.056442
vt 0.095019 0.203237
vt 0.095129 0.208189
vt 0.092288 0.894825
vt 0.094127 0.933132
vt 0.100832 0.202617
vt 0.091334 0.208808
vt 0.092288 0.186678
vt 0.087679 0.073322
vt 0.094127 0.950011
vt 0.092288 0.894825
vt 0.099374 0.180075
vt 0.086793 0.060663
vt 0.096459 0.901429
vt 0.091469 0.945792
vt 0.099374 0.180075
vt 0.090338 0.060663
vt 0.095013 0.937352
vt 0.099374 0.901429
vt 0.092288 0.186678
vt 0.087679 0.056442
vt 0.094194 0.894825
vt 0.092355 0.933132
vt 0.094194 0.186678
vt 0.089452 0.073322
vt 0.095019 0.878268
vt 0.095129 0.873315
vt 0.091334 0.872696
vt 0.100832 0.878886
vt 0.095001 0.202617
vt 0.091334 0.208808
vt 0.100832 0.202617
vt 0.095148 0.208808
vt 0.092288 0.872696
vt 0.096472 0.878422
vt 0.092355 0.937352
vt 0.092355 0.945792
vt 0.094127 0.945792
vt 0.092283 0.208653
vt 0.087679 0.060663
vt 0.087679 0.069102
vt 0.089452 0.069102
vt 0.096459 0.202617
vt 0.099374 0.878886
vt 0.096459 0.878886
vt 0.092283 0.872850
vt 0.094181 0.873160
vt 0.099379 0.202772
vt 0.096472 0.203082
vt 0.092288 0.208808
vt 0.094194 0.208808
vt 0.099374 0.202617
vt 0.089452 0.060663
vt 0.094181 0.208343
vt 0.094127 0.937352
vt 0.099379 0.878731
vt 0.094194 0.872696
vt 0.587088 0.180075
vt 0.573049 0.056442
vt 0.577590 0.186678
vt 0.577590 0.186678
vt 0.573049 0.073322
vt 0.581256 0.180075
vt 0.576593 0.056442
vt 0.587088 0.180075
vt 0.581403 0.186678
vt 0.581403 0.186678
vt 0.576593 0.073322
vt 0.581256 0.180075
vt 0.581269 0.933132
vt 0.577590 0.894825
vt 0.587088 0.901428
vt 0.581269 0.950011
vt 0.581256 0.901428
vt 0.577590 0.894825
vt 0.581403 0.894825
vt 0.587088 0.901429
vt 0.577725 0.933132
vt 0.581256 0.901429
vt 0.577725 0.950011
vt 0.581403 0.894825
vt 0.578611 0.950011
vt 0.580450 0.894825
vt 0.577590 0.872696
vt 0.581256 0.878886
vt 0.573049 0.069102
vt 0.582714 0.180075
vt 0.585630 0.901429
vt 0.577725 0.937351
vt 0.576593 0.069102
vt 0.582714 0.180075
vt 0.581269 0.945791
vt 0.582714 0.901428
vt 0.587088 0.878886
vt 0.581403 0.872696
vt 0.575707 0.056442
vt 0.580450 0.186678
vt 0.581385 0.208189
vt 0.581275 0.203237
vt 0.580383 0.933132
vt 0.578543 0.894825
vt 0.587088 0.202617
vt 0.577590 0.208808
vt 0.573935 0.073322
vt 0.578543 0.186678
vt 0.580383 0.950011
vt 0.578543 0.894825
vt 0.573049 0.060663
vt 0.585630 0.180075
vt 0.582714 0.901429
vt 0.577725 0.945791
vt 0.576593 0.060663
vt 0.585630 0.180075
vt 0.581269 0.937351
vt 0.585630 0.901428
vt 0.573935 0.056442
vt 0.578543 0.186678
vt 0.580450 0.894825
vt 0.578611 0.933132
vt 0.575707 0.073322
vt 0.580450 0.186678
vt 0.581385 0.873315
vt 0.581275 0.878267
vt 0.577590 0.872696
vt 0.587088 0.878886
vt 0.577590 0.208808
vt 0.581256 0.202617
vt 0.587088 0.202617
vt 0.581403 0.208808
vt 0.578543 0.872696
vt 0.582728 0.878422
vt 0.578611 0.937351
vt 0.578611 0.945791
vt 0.580383 0.945791
vt 0.578539 0.208653
vt 0.573935 0.060663
vt 0.573935 0.069102
vt 0.575707 0.069102
vt 0.582714 0.202617
vt 0.585630 0.878886
vt 0.582714 0.878886
vt 0.578539 0.872850
vt 0.580436 0.873160
vt 0.585635 0.202772
vt 0.582728 0.203082
vt 0.578543 0.208808
vt 0.580450 0.208808
vt 0.585630 0.202617
vt 0.575707 0.060663
vt 0.580436 0.208343
vt 0.580383 0.937351
vt 0.585635 0.878731
vt 0.580450 0.872696
vt 0.353311 0.180075
vt 0.339272 0.056442
vt 0.343813 0.186678
vt 0.343813 0.186678
vt 0.339272 0.073322
vt 0.347480 0.180075
vt 0.342817 0.056442
vt 0.353311 0.180075
vt 0.347627 0.186678
vt 0.347627 0.186678
vt 0.342817 0.073322
vt 0.347480 0.180075
vt 0.347492 0.933132
vt 0.343813 0.894825
vt 0.353311 0.901429
vt 0.347492 0.950011
vt 0.347480 0.901429
vt 0.343813 0.894825
vt 0.347627 0.894825
vt 0.353311 0.901429
vt 0.343948 0.933132
vt 0.347480 0.901429
vt 0.343948 0.950011
vt 0.347627 0.894825
vt 0.344834 0.950011
vt 0.346673 0.894825
vt 0.347480 0.878886
vt 0.343813 0.872696
vt 0.339272 0.069102
vt 0.348938 0.180075
vt 0.351853 0.901429
vt 0.343948 0.937352
vt 0.342817 0.069102
vt 0.348938 0.180075
vt 0.347492 0.945791
vt 0.348938 0.901429
vt 0.353311 0.878886
vt 0.347627 0.872696
vt 0.341931 0.056442
vt 0.346673 0.186678
vt 0.347608 0.208189
vt 0.347498 0.203237
vt 0.346606 0.933132
vt 0.344767 0.894825
vt 0.353311 0.202617
vt 0.343813 0.208808
vt 0.344767 0.186678
vt 0.340158 0.073322
vt 0.346606 0.950011
vt 0.344767 0.894825
vt 0.351853 0.180075
vt 0.339272 0.060663
vt 0.348938 0.901429
vt 0.343948 0.945791
vt 0.342817 0.060663
vt 0.351853 0.180075
vt 0.347492 0.937352
vt 0.351853 0.901429
vt 0.340158 0.056442
vt 0.344767 0.186678
vt 0.344834 0.933132
vt 0.346673 0.894825
vt 0.346673 0.186678
vt 0.341931 0.073322
vt 0.347608 0.873315
vt 0.347498 0.878268
vt 0.353311 0.878886
vt 0.343813 0.872696
vt 0.343813 0.208808
vt 0.347480 0.202617
vt 0.353311 0.202617
vt 0.347627 0.208808
vt 0.344767 0.872696
vt 0.348951 0.878422
vt 0.344834 0.937352
vt 0.344834 0.945791
vt 0.346606 0.945791
vt 0.344762 0.208653
vt 0.340158 0.060663
vt 0.340158 0.069102
vt 0.341931 0.069102
vt 0.348938 0.202617
vt 0.351853 0.878886
vt 0.348938 0.878886
vt 0.344762 0.872850
vt 0.346659 0.873160
vt 0.351858 0.202772
vt 0.348951 0.203082
vt 0.344767 0.208808
vt 0.346673 0.208808
vt 0.351853 0.202617
vt 0.341931 0.060663
vt 0.346659 0.208343
vt 0.346606 0.937352
vt 0.351858 0.878731
vt 0.346673 0.872696
s 1
f 56/96/1 27/61/2 7/19/3 15/38/4
f 55/95/5 15/37/4 7/20/3 12/31/6
f 54/94/7 18/44/8 5/13/9 25/57/10
f 53/93/11 28/63/12 4/10/13 17/42/14
f 52/92/15 16/40/16 3/7/17 24/56/18
f 51/91/19 19/45/20 1/1/21 22/51/22
f 19/45/20 51/91/19 43/83/23 30/68/24
f 75/142/25 86/163/26 89/169/27 105/185/28
f 28/63/12 53/93/11 38/78/29 20/47/30
f 154/274/31 163/283/32 134/243/33 123/222/34
f 103/183/35 111/191/36 90/170/37 104/184/38
f 97/177/39 108/188/40 80/151/41 69/129/42
f 40/80/43 41/81/44 28/64/12 20/48/30
f 36/76/45 37/77/46 21/49/47 9/25/48
f 37/77/46 54/94/7 25/57/10 14/35/49
f 32/71/50 15/37/4 55/95/5 47/87/51
f 97/177/39 96/176/52 95/175/53 108/188/40
f 135/246/54 124/224/55 147/267/56 148/268/57
f 152/272/58 153/273/59 140/256/60 132/240/61
f 42/82/62 51/91/19 22/51/22 11/29/63
f 27/61/2 56/96/1 33/73/64 18/43/8
f 30/67/24 5/14/9 18/43/8 33/73/64
f 29/65/65 34/74/66 23/53/67 8/22/68
f 12/32/6 7/21/3 27/62/2 35/75/69
f 8/23/68 23/54/67 36/76/45 9/25/48
f 21/49/47 37/77/46 14/35/49 6/16/70
f 31/70/71 2/4/72 20/47/30 38/78/29
f 22/52/22 1/2/21 26/60/73 39/79/74
f 2/5/72 11/30/63 40/80/43 20/48/30
f 28/64/12 41/81/44 13/34/75 4/11/13
f 31/69/71 42/82/62 11/29/63 2/6/72
f 148/268/57 149/269/76 133/241/77 121/217/78
f 33/73/64 56/96/1 50/90/79 49/89/80
f 139/253/81 130/235/82 166/286/83 147/267/56
f 30/67/24 33/73/64 49/89/80 19/46/20
f 125/226/84 136/248/85 159/279/86 160/280/87
f 87/165/88 94/174/89 101/181/90 66/123/91
f 13/33/75 24/55/18 47/87/51 48/88/92
f 70/132/93 81/154/94 99/179/95 100/180/96
f 25/58/10 5/15/9 30/68/24 43/83/23
f 6/17/70 14/36/49 44/84/97 10/27/98
f 42/82/62 31/69/71 10/27/98 44/84/97
f 6/18/70 10/28/98 45/85/99 21/50/47
f 9/26/48 46/86/100 29/66/65 8/24/68
f 34/74/66 29/65/65 17/41/14 48/88/92
f 45/85/99 38/78/29 53/93/11 46/86/100
f 101/181/90 102/182/101 65/122/102 77/146/103
f 83/157/104 112/192/105 89/169/27 74/140/106
f 49/89/80 50/90/79 16/39/16 26/59/73
f 147/267/56 166/286/83 149/269/76 148/268/57
f 24/55/18 3/8/17 32/71/50 47/87/51
f 4/12/13 13/33/75 48/88/92 17/41/14
f 27/62/2 18/44/8 54/94/7 35/75/69
f 1/3/21 19/46/20 49/89/80 26/59/73
f 16/39/16 50/90/79 32/72/50 3/9/17
f 83/158/104 74/139/106 110/190/107 91/171/108
f 86/164/26 75/141/25 107/187/109 99/179/95
f 90/170/37 111/191/36 68/127/110 79/149/111
f 112/192/105 83/157/104 63/115/112 71/134/113
f 111/191/36 71/133/113 63/116/112 68/127/110
f 110/190/107 74/139/106 61/109/114 81/153/94
f 109/189/115 84/160/116 60/106/117 73/137/118
f 108/188/40 72/135/119 59/103/120 80/151/41
f 107/187/109 75/141/25 57/97/121 78/148/122
f 37/77/46 36/76/45 35/75/69 54/94/7
f 26/60/73 16/40/16 52/92/15 39/79/74
f 45/85/99 46/86/100 9/26/48 21/50/47
f 109/189/115 102/182/101 101/181/90 94/174/89
f 11/30/63 22/52/22 39/79/74 40/80/43
f 34/74/66 55/95/5 12/31/6 23/53/67
f 46/86/100 53/93/11 17/42/14 29/66/65
f 143/261/123 150/270/124 157/277/125 122/220/126
f 50/90/79 56/96/1 15/38/4 32/72/50
f 51/91/19 42/82/62 44/84/97 43/83/23
f 138/251/127 128/231/128 164/284/129 151/271/130
f 92/172/131 93/173/132 77/145/103 65/121/102
f 79/150/111 68/128/110 91/171/108 92/172/131
f 86/163/26 61/110/114 74/140/106 89/169/27
f 153/273/59 164/284/129 136/247/85 125/225/84
f 93/173/132 110/190/107 81/153/94 70/131/93
f 85/162/133 90/170/37 79/149/111 64/118/134
f 68/128/110 63/117/112 83/158/104 91/171/108
f 64/119/134 79/150/111 92/172/131 65/121/102
f 77/145/103 93/173/132 70/131/93 62/112/135
f 87/165/88 58/100/136 76/144/137 94/174/89
f 167/287/138 146/266/139 160/280/87 159/279/86
f 78/147/122 57/98/121 82/155/140 95/175/53
f 58/101/136 67/125/141 96/176/52 76/143/137
f 84/159/116 97/177/39 69/129/42 60/107/117
f 87/166/88 98/178/142 67/126/141 58/102/136
f 71/133/113 111/191/36 103/183/35 88/167/143
f 156/276/144 154/274/31 143/262/123 122/219/126
f 151/271/130 164/284/129 153/273/59 152/272/58
f 144/263/145 127/229/146 167/287/138 159/279/86
f 67/125/141 78/147/122 95/175/53 96/176/52
f 140/255/60 165/285/147 150/270/124 132/239/61
f 81/154/94 61/111/114 86/164/26 99/179/95
f 62/113/135 70/132/93 100/180/96 66/124/91
f 39/79/74 52/92/15 41/81/44 40/80/43
f 62/114/135 66/123/91 101/181/90 77/146/103
f 65/122/102 102/182/101 85/161/133 64/120/134
f 82/155/140 72/135/119 108/188/40 95/175/53
f 107/187/109 98/178/142 100/180/96 99/179/95
f 149/269/76 166/286/83 137/249/148 126/227/149
f 80/152/41 59/104/120 88/167/143 103/183/35
f 60/108/117 69/130/42 104/184/38 73/138/118
f 57/99/121 75/142/25 105/185/28 82/156/140
f 72/136/119 106/186/150 88/168/143 59/105/120
f 105/185/28 89/169/27 112/192/105 106/186/150
f 146/266/139 167/287/138 124/223/55 135/245/54
f 41/81/44 52/92/15 24/56/18 13/34/75
f 98/178/142 87/166/88 66/124/91 100/180/96
f 106/186/150 112/192/105 71/134/113 88/168/143
f 55/95/5 34/74/66 48/88/92 47/87/51
f 168/288/151 139/254/81 119/211/152 127/230/146
f 167/287/138 127/229/146 119/212/152 124/223/55
f 166/286/83 130/235/82 117/205/153 137/249/148
f 165/285/147 140/255/60 116/202/154 129/233/155
f 164/284/129 128/231/128 115/199/156 136/247/85
f 163/283/32 131/237/157 113/193/158 134/243/33
f 158/278/159 165/285/147 129/233/155 141/257/160
f 14/36/49 25/58/10 43/83/23 44/84/97
f 157/277/125 158/278/159 121/218/78 133/242/77
f 109/189/115 73/137/118 85/161/133 102/182/101
f 162/282/161 168/288/151 127/230/146 144/264/145
f 142/260/162 117/206/153 130/236/82 145/265/163
f 91/171/108 110/190/107 93/173/132 92/172/131
f 141/258/160 146/266/139 135/245/54 120/214/164
f 124/224/55 119/213/152 139/253/81 147/267/56
f 120/215/164 135/246/54 148/268/57 121/217/78
f 133/241/77 149/269/76 126/227/149 118/208/165
f 143/261/123 114/196/166 132/239/61 150/270/124
f 134/244/33 113/194/158 138/251/127 151/271/130
f 114/197/166 123/221/34 152/272/58 132/240/61
f 140/256/60 153/273/59 125/225/84 116/203/154
f 123/221/34 134/244/33 151/271/130 152/272/58
f 143/262/123 154/274/31 123/222/34 114/198/166
f 98/178/142 107/187/109 78/148/122 67/126/141
f 139/254/81 168/288/151 145/265/163 130/236/82
f 104/184/38 90/170/37 85/162/133 73/138/118
f 155/275/167 163/283/32 154/274/31 156/276/144
f 23/54/67 12/32/6 35/75/69 36/76/45
f 69/130/42 80/152/41 103/183/35 104/184/38
f 142/259/162 131/237/157 163/283/32 155/275/167
f 31/70/71 38/78/29 45/85/99 10/28/98
f 126/228/149 137/250/148 155/275/167 156/276/144
f 158/278/159 157/277/125 150/270/124 165/285/147
f 137/250/148 117/207/153 142/259/162 155/275/167
f 161/281/168 162/282/161 128/232/128 138/252/127
f 118/209/165 126/228/149 156/276/144 122/219/126
f 118/210/165 122/220/126 157/277/125 133/242/77
f 121/218/78 158/278/159 141/257/160 120/216/164
f 160/280/87 146/266/139 141/258/160 129/234/155
f 161/281/168 145/265/163 168/288/151 162/282/161
f 96/176/52 97/177/39 84/159/116 76/143/137
f 136/248/85 115/200/156 144/263/145 159/279/86
f 116/204/154 125/226/84 160/280/87 129/234/155
f 113/195/158 131/238/157 161/281/168 138/252/127
f 128/232/128 162/282/161 144/264/145 115/201/156
f 84/160/116 109/189/115 94/174/89 76/144/137
f 131/238/157 142/260/162 145/265/163 161/281/168
f 105/185/28 106/186/150 72/136/119 82/156/140
